<svg xmlns="http://www.w3.org/2000/svg" width="1200" height="424" viewBox="0 0 1200 424" fill="none"><g clip-path="url(#clip0_4690_6504)"><line x1="96.5" y1="2.18557e-08" x2="96.5" y2="888" stroke="white" stroke-opacity="0.08"></line><line x1="208.5" y1="2.18557e-08" x2="208.5" y2="888" stroke="white" stroke-opacity="0.08"></line><line x1="320.5" y1="2.18557e-08" x2="320.5" y2="888" stroke="white" stroke-opacity="0.08"></line><line x1="432.5" y1="2.18557e-08" x2="432.5" y2="888" stroke="white" stroke-opacity="0.08"></line><line x1="544.5" y1="2.18557e-08" x2="544.5" y2="888" stroke="white" stroke-opacity="0.08"></line><line x1="656.5" y1="2.18557e-08" x2="656.5" y2="888" stroke="white" stroke-opacity="0.08"></line><line x1="768.5" y1="2.18557e-08" x2="768.5" y2="888" stroke="white" stroke-opacity="0.08"></line><line x1="880.5" y1="2.18557e-08" x2="880.5" y2="888" stroke="white" stroke-opacity="0.08"></line><line x1="992.5" y1="2.18557e-08" x2="992.5" y2="888" stroke="white" stroke-opacity="0.08"></line><line x1="1104.5" y1="2.18557e-08" x2="1104.5" y2="888" stroke="white" stroke-opacity="0.08"></line><rect x="992" y="-40" width="112" height="400" fill="url(#paint0_linear_4690_6504)" fill-opacity="0.5"></rect><rect width="112" height="400" transform="matrix(1 0 0 -1 768 400)" fill="url(#paint1_linear_4690_6504)" fill-opacity="0.5"></rect><rect x="544" width="112" height="400" fill="url(#paint2_linear_4690_6504)" fill-opacity="0.5"></rect><rect x="96" y="-88" width="112" height="400" fill="url(#paint3_linear_4690_6504)" fill-opacity="0.5"></rect><rect x="208" width="112" height="400" fill="url(#paint4_linear_4690_6504)" fill-opacity="0.5"></rect></g><defs><linearGradient id="paint0_linear_4690_6504" x1="1048" y1="360" x2="1048" y2="-40" gradientUnits="userSpaceOnUse"><stop stop-color="white" stop-opacity="0.08"></stop><stop offset="1" stop-color="white" stop-opacity="0"></stop></linearGradient><linearGradient id="paint1_linear_4690_6504" x1="56" y1="400" x2="56" y2="-5.8174e-07" gradientUnits="userSpaceOnUse"><stop stop-color="white" stop-opacity="0.08"></stop><stop offset="1" stop-color="white" stop-opacity="0"></stop></linearGradient><linearGradient id="paint2_linear_4690_6504" x1="600" y1="400" x2="600" y2="-5.8174e-07" gradientUnits="userSpaceOnUse"><stop stop-color="white" stop-opacity="0.08"></stop><stop offset="1" stop-color="white" stop-opacity="0"></stop></linearGradient><linearGradient id="paint3_linear_4690_6504" x1="152" y1="312" x2="152" y2="-88" gradientUnits="userSpaceOnUse"><stop stop-color="white" stop-opacity="0.08"></stop><stop offset="1" stop-color="white" stop-opacity="0"></stop></linearGradient><linearGradient id="paint4_linear_4690_6504" x1="264" y1="400" x2="264" y2="-5.8174e-07" gradientUnits="userSpaceOnUse"><stop stop-color="white" stop-opacity="0.08"></stop><stop offset="1" stop-color="white" stop-opacity="0"></stop></linearGradient><clipPath id="clip0_4690_6504"><rect width="1440" height="424" fill="white" transform="translate(-120)"></rect></clipPath></defs></svg>